<svg width="24" height="24" viewBox="0 0 24 24" fill="none" xmlns="http://www.w3.org/2000/svg">
<path fill-rule="evenodd" clip-rule="evenodd" d="M16 8H8C5.23858 8 3 10.2386 3 13V17C3 19.7614 5.23858 22 8 22H16C18.7614 22 21 19.7614 21 17V13C21 10.2386 18.7614 8 16 8ZM8 10H16C17.6569 10 19 11.3431 19 13V17C19 18.6569 17.6569 20 16 20H8C6.34315 20 5 18.6569 5 17V13C5 11.3431 6.34315 10 8 10ZM12 13C11.4477 13 11 13.4477 11 14V16C11 16.5523 11.4477 17 12 17C12.5523 17 13 16.5523 13 16V14C13 13.4477 12.5523 13 12 13Z" fill="#089BAB"/>
<g opacity="0.5">
<path fill-rule="evenodd" clip-rule="evenodd" d="M12 2.00004C14.89 2.00004 16.8924 4.06732 16.9958 6.84962L17 7.07675V9C17 9.55228 16.5523 10 16 10C15.4872 10 15.0645 9.61396 15.0067 9.11662L15 9V7.07675C15 5.25483 13.8307 4.00004 12 4.00004C10.2328 4.00004 9.09149 5.15194 9.00522 6.86609L9 7.05883V9C9 9.55228 8.55228 10 8 10C7.48716 10 7.06449 9.61396 7.00673 9.11662L7 9L7.00001 7.05455C7.01241 4.15925 9.03349 2.00004 12 2.00004Z" fill="#089BAB"/>
</g>
</svg>
