<svg width="56" height="50" viewBox="0 0 56 50" fill="none" xmlns="http://www.w3.org/2000/svg">
<rect opacity="0.25" x="2" y="34" width="52" height="14" rx="6" fill="#089BAB"/>
<mask id="path-2-outside-1" maskUnits="userSpaceOnUse" x="0" y="0" width="56" height="50" fill="black">
<rect fill="white" width="56" height="50"/>
<path d="M1 42.5456C1 41.2938 1 40.0421 1 38.7903C1.03164 38.7068 1.07383 38.6338 1.08438 38.5504C1.43242 36.4119 2.5293 34.7533 4.32227 33.5329C4.38555 33.4912 4.43828 33.4286 4.52266 33.3555C4.40664 33.2721 4.32227 33.2095 4.23789 33.1574C4.15352 33.0948 4.06914 33.0322 3.98477 32.9696C2.61367 31.9577 1.70664 30.633 1.25313 29.0057C1.1582 28.6614 1.08438 28.2963 1 27.9521C1 26.7003 1 25.4486 1 24.1968C1.03164 24.1029 1.07383 23.9986 1.09492 23.9047C1.81211 20.139 4.74414 17.7293 8.62539 17.7293C12.3379 17.7293 16.0398 17.7293 19.7523 17.7293C19.9316 17.7293 20.1215 17.7293 20.2586 17.7293C19.2566 17.0096 18.202 16.3524 17.2738 15.5492C15.1855 13.7446 13.7512 11.5122 13.2766 8.75837C13.1605 8.05946 13.3609 7.64221 14.0254 7.40229C14.616 7.19366 15.2277 6.98503 15.8395 6.89115C16.7359 6.75554 17.643 6.71382 18.5711 6.63037C18.5605 6.53648 18.55 6.42174 18.5395 6.30699C18.4023 4.81531 18.5184 3.35491 19.0457 1.94668C19.3305 1.17476 19.7523 0.882678 20.5434 1.11217C21.577 1.41468 22.6105 1.76934 23.5809 2.21789C24.2137 2.50997 24.7621 3.00025 25.3 3.36535C25.8906 2.72903 26.4496 2.07185 27.0719 1.4877C27.768 0.830521 28.2531 0.840953 28.9492 1.49813C29.5609 2.09272 30.1094 2.73946 30.7 3.37578C30.6895 3.37578 30.7316 3.37578 30.7527 3.35491C30.8793 3.26103 30.9953 3.15672 31.1219 3.06284C32.4191 2.03013 33.8746 1.33123 35.5199 1.06001C36.2371 0.945266 36.6801 1.15389 36.9121 1.84236C37.1125 2.44738 37.3234 3.07327 37.3762 3.69915C37.45 4.6797 37.3973 5.66025 37.3973 6.67209C37.6188 6.67209 37.777 6.67209 37.9246 6.67209C39.3273 6.66166 40.6879 6.83899 41.9957 7.37099C42.6074 7.62135 42.85 8.01774 42.734 8.64362C42.6496 9.13389 42.5441 9.6346 42.3859 10.1144C41.3102 13.369 39.0953 15.6744 36.1527 17.3643C35.9945 17.4581 35.8469 17.5416 35.5621 17.7085C35.8996 17.7085 36.0789 17.7085 36.2477 17.7085C40.0234 17.7085 43.7992 17.6981 47.5855 17.7085C50.9605 17.7189 53.8187 19.8678 54.7258 23.0702C54.8312 23.4353 54.9051 23.8108 55 24.1759C55 25.4277 55 26.6795 55 27.9312C54.9684 28.0251 54.9262 28.1294 54.9051 28.2233C54.557 30.2783 53.5129 31.8952 51.8043 33.1052C51.6988 33.1782 51.6039 33.2721 51.4773 33.366C51.6672 33.5016 51.8254 33.6163 51.973 33.7311C53.3547 34.7534 54.2828 36.0781 54.7469 37.7263C54.8418 38.0705 54.9156 38.4356 55 38.7799C55 40.0316 55 41.2834 55 42.5352C54.9684 42.6499 54.9156 42.7646 54.9051 42.8794C54.3145 46.3843 51.2875 48.9922 47.691 48.9922C34.5602 49.0026 21.4398 49.0026 8.30898 48.9922C4.98672 48.9922 2.06523 46.7077 1.23203 43.5366C1.14766 43.2236 1.07383 42.8898 1 42.5456ZM46.4359 32.3228C46.9 32.3228 47.2902 32.3333 47.6699 32.3228C50.1063 32.2707 52.2262 30.6434 52.7219 28.2859C52.9223 27.3471 52.8801 26.3561 52.8801 25.386C52.8906 22.0062 50.6652 19.8052 47.248 19.8052C36.7539 19.8052 26.2598 19.8052 15.7762 19.8052C13.2977 19.8052 10.8191 19.7843 8.34062 19.8156C5.9043 19.8365 3.81602 21.4325 3.28867 23.7691C2.94063 25.2817 2.94063 26.8568 3.28867 28.3693C3.84766 30.7686 5.95703 32.3228 8.50937 32.3228C18.5816 32.3228 28.6539 32.3228 38.7156 32.3228C40.0656 32.3228 41.4262 32.3333 42.7762 32.3228C43.8836 32.3124 44.7695 31.4883 44.8645 30.4243C44.9594 29.3603 44.2211 28.4006 43.1453 28.192C42.9027 28.1503 42.6602 28.1503 42.407 28.1503C39.2219 28.1503 36.0473 28.1503 32.8621 28.1503C32.166 28.1503 31.7125 27.733 31.6914 27.1384C31.6703 26.5439 32.1344 26.0744 32.7988 26.064C36.1949 26.0536 39.5805 26.0327 42.9766 26.0744C44.8645 26.0953 46.4992 27.5348 46.8895 29.3708C47.1004 30.393 46.9211 31.3423 46.4359 32.3228ZM46.4465 46.9268C46.9211 46.9268 47.3324 46.9372 47.7543 46.9268C50.275 46.8642 52.416 45.0387 52.7852 42.5664C52.9117 41.7006 52.8801 40.8035 52.8801 39.9169C52.8801 36.6414 50.6336 34.4195 47.3219 34.4195C43.7148 34.4195 40.1184 34.4195 36.5113 34.4195C27.1563 34.4195 17.8117 34.4195 8.45664 34.4195C5.9043 34.4195 3.74219 36.0468 3.25703 38.4565C3.04609 39.4788 3.09883 40.5636 3.09883 41.6172C3.09883 44.6423 5.39805 46.9268 8.46719 46.9268C19.8367 46.9372 31.2062 46.9268 42.5863 46.9268C43.9047 46.9268 44.8539 46.0401 44.8539 44.8301C44.8539 43.6305 43.9047 42.7542 42.5652 42.7542C35.2141 42.7542 27.8734 42.7542 20.5223 42.7542C17.3582 42.7542 14.1941 42.7646 11.0301 42.7438C9.31094 42.7334 7.93984 41.3147 7.93984 39.6144C7.93984 37.9349 9.33203 36.5163 10.9879 36.485C11.6312 36.4745 12.1059 36.8709 12.1586 37.4446C12.2008 38.0184 11.7895 38.4774 11.1566 38.5608C10.4395 38.6547 10.0387 39.0719 10.0598 39.6561C10.0914 40.2611 10.566 40.6471 11.3043 40.6471C17.6324 40.6471 23.9605 40.6471 30.2887 40.6471C34.4336 40.6471 38.5891 40.6366 42.734 40.6575C44.8539 40.6679 46.5309 42.0866 46.9105 44.1416C47.1004 45.1221 46.8789 46.0192 46.4465 46.9268ZM15.5336 9.01915C16.5566 13.8489 22.6105 17.5103 26.9453 16.9157C26.9453 15.8308 26.9559 14.7355 26.9348 13.6507C26.9348 13.5151 26.8398 13.3482 26.7449 13.2439C24.3824 10.4378 21.3871 8.87311 17.6535 8.80009C16.9574 8.7688 16.2508 8.9357 15.5336 9.01915ZM29.0547 16.9261C33.6215 17.4477 39.4328 13.7446 40.477 8.97742C39.5805 8.91484 38.684 8.7375 37.8191 8.80009C34.3492 9.01915 31.5227 10.5421 29.2973 13.1708C29.1918 13.296 29.0758 13.4629 29.0652 13.6194C29.0441 14.7251 29.0547 15.8308 29.0547 16.9261ZM35.1508 3.29233C34.9293 3.36535 34.75 3.4175 34.5707 3.49052C32.0605 4.52323 30.4363 6.40087 29.3289 8.78966C29.118 9.23821 29.1074 9.6346 29.3395 10.0519C29.3922 10.0414 29.4344 10.0414 29.4555 10.0206C31.0797 8.68535 32.8937 7.69437 34.9504 7.1415C35.0559 7.11021 35.2035 6.98503 35.2246 6.88072C35.4461 5.69154 35.4988 4.5128 35.1508 3.29233ZM25.9117 7.36056C24.6672 5.45162 23.0957 4.00166 20.8598 3.29233C20.5645 4.29374 20.6066 5.24299 20.6488 6.19225C20.6805 6.85986 20.9441 7.20409 21.6297 7.32927C22.1254 7.42315 22.5895 7.64221 23.0535 7.85084C23.6863 8.14291 24.298 8.46629 24.952 8.80009C24.8465 8.0386 25.1734 7.56919 25.9117 7.36056ZM27.9895 3.4175C27.557 4.00166 27.1984 4.50237 26.8293 4.99264C27.2301 5.5768 27.5992 6.11923 27.9895 6.69295C28.3797 6.11923 28.7488 5.5768 29.1391 5.00307C28.791 4.50237 28.4219 4.01209 27.9895 3.4175Z"/>
</mask>
<path d="M1 42.5456C1 41.2938 1 40.0421 1 38.7903C1.03164 38.7068 1.07383 38.6338 1.08438 38.5504C1.43242 36.4119 2.5293 34.7533 4.32227 33.5329C4.38555 33.4912 4.43828 33.4286 4.52266 33.3555C4.40664 33.2721 4.32227 33.2095 4.23789 33.1574C4.15352 33.0948 4.06914 33.0322 3.98477 32.9696C2.61367 31.9577 1.70664 30.633 1.25313 29.0057C1.1582 28.6614 1.08438 28.2963 1 27.9521C1 26.7003 1 25.4486 1 24.1968C1.03164 24.1029 1.07383 23.9986 1.09492 23.9047C1.81211 20.139 4.74414 17.7293 8.62539 17.7293C12.3379 17.7293 16.0398 17.7293 19.7523 17.7293C19.9316 17.7293 20.1215 17.7293 20.2586 17.7293C19.2566 17.0096 18.202 16.3524 17.2738 15.5492C15.1855 13.7446 13.7512 11.5122 13.2766 8.75837C13.1605 8.05946 13.3609 7.64221 14.0254 7.40229C14.616 7.19366 15.2277 6.98503 15.8395 6.89115C16.7359 6.75554 17.643 6.71382 18.5711 6.63037C18.5605 6.53648 18.55 6.42174 18.5395 6.30699C18.4023 4.81531 18.5184 3.35491 19.0457 1.94668C19.3305 1.17476 19.7523 0.882678 20.5434 1.11217C21.577 1.41468 22.6105 1.76934 23.5809 2.21789C24.2137 2.50997 24.7621 3.00025 25.3 3.36535C25.8906 2.72903 26.4496 2.07185 27.0719 1.4877C27.768 0.830521 28.2531 0.840953 28.9492 1.49813C29.5609 2.09272 30.1094 2.73946 30.7 3.37578C30.6895 3.37578 30.7316 3.37578 30.7527 3.35491C30.8793 3.26103 30.9953 3.15672 31.1219 3.06284C32.4191 2.03013 33.8746 1.33123 35.5199 1.06001C36.2371 0.945266 36.6801 1.15389 36.9121 1.84236C37.1125 2.44738 37.3234 3.07327 37.3762 3.69915C37.45 4.6797 37.3973 5.66025 37.3973 6.67209C37.6188 6.67209 37.777 6.67209 37.9246 6.67209C39.3273 6.66166 40.6879 6.83899 41.9957 7.37099C42.6074 7.62135 42.85 8.01774 42.734 8.64362C42.6496 9.13389 42.5441 9.6346 42.3859 10.1144C41.3102 13.369 39.0953 15.6744 36.1527 17.3643C35.9945 17.4581 35.8469 17.5416 35.5621 17.7085C35.8996 17.7085 36.0789 17.7085 36.2477 17.7085C40.0234 17.7085 43.7992 17.6981 47.5855 17.7085C50.9605 17.7189 53.8187 19.8678 54.7258 23.0702C54.8312 23.4353 54.9051 23.8108 55 24.1759C55 25.4277 55 26.6795 55 27.9312C54.9684 28.0251 54.9262 28.1294 54.9051 28.2233C54.557 30.2783 53.5129 31.8952 51.8043 33.1052C51.6988 33.1782 51.6039 33.2721 51.4773 33.366C51.6672 33.5016 51.8254 33.6163 51.973 33.7311C53.3547 34.7534 54.2828 36.0781 54.7469 37.7263C54.8418 38.0705 54.9156 38.4356 55 38.7799C55 40.0316 55 41.2834 55 42.5352C54.9684 42.6499 54.9156 42.7646 54.9051 42.8794C54.3145 46.3843 51.2875 48.9922 47.691 48.9922C34.5602 49.0026 21.4398 49.0026 8.30898 48.9922C4.98672 48.9922 2.06523 46.7077 1.23203 43.5366C1.14766 43.2236 1.07383 42.8898 1 42.5456ZM46.4359 32.3228C46.9 32.3228 47.2902 32.3333 47.6699 32.3228C50.1063 32.2707 52.2262 30.6434 52.7219 28.2859C52.9223 27.3471 52.8801 26.3561 52.8801 25.386C52.8906 22.0062 50.6652 19.8052 47.248 19.8052C36.7539 19.8052 26.2598 19.8052 15.7762 19.8052C13.2977 19.8052 10.8191 19.7843 8.34062 19.8156C5.9043 19.8365 3.81602 21.4325 3.28867 23.7691C2.94063 25.2817 2.94063 26.8568 3.28867 28.3693C3.84766 30.7686 5.95703 32.3228 8.50937 32.3228C18.5816 32.3228 28.6539 32.3228 38.7156 32.3228C40.0656 32.3228 41.4262 32.3333 42.7762 32.3228C43.8836 32.3124 44.7695 31.4883 44.8645 30.4243C44.9594 29.3603 44.2211 28.4006 43.1453 28.192C42.9027 28.1503 42.6602 28.1503 42.407 28.1503C39.2219 28.1503 36.0473 28.1503 32.8621 28.1503C32.166 28.1503 31.7125 27.733 31.6914 27.1384C31.6703 26.5439 32.1344 26.0744 32.7988 26.064C36.1949 26.0536 39.5805 26.0327 42.9766 26.0744C44.8645 26.0953 46.4992 27.5348 46.8895 29.3708C47.1004 30.393 46.9211 31.3423 46.4359 32.3228ZM46.4465 46.9268C46.9211 46.9268 47.3324 46.9372 47.7543 46.9268C50.275 46.8642 52.416 45.0387 52.7852 42.5664C52.9117 41.7006 52.8801 40.8035 52.8801 39.9169C52.8801 36.6414 50.6336 34.4195 47.3219 34.4195C43.7148 34.4195 40.1184 34.4195 36.5113 34.4195C27.1563 34.4195 17.8117 34.4195 8.45664 34.4195C5.9043 34.4195 3.74219 36.0468 3.25703 38.4565C3.04609 39.4788 3.09883 40.5636 3.09883 41.6172C3.09883 44.6423 5.39805 46.9268 8.46719 46.9268C19.8367 46.9372 31.2062 46.9268 42.5863 46.9268C43.9047 46.9268 44.8539 46.0401 44.8539 44.8301C44.8539 43.6305 43.9047 42.7542 42.5652 42.7542C35.2141 42.7542 27.8734 42.7542 20.5223 42.7542C17.3582 42.7542 14.1941 42.7646 11.0301 42.7438C9.31094 42.7334 7.93984 41.3147 7.93984 39.6144C7.93984 37.9349 9.33203 36.5163 10.9879 36.485C11.6312 36.4745 12.1059 36.8709 12.1586 37.4446C12.2008 38.0184 11.7895 38.4774 11.1566 38.5608C10.4395 38.6547 10.0387 39.0719 10.0598 39.6561C10.0914 40.2611 10.566 40.6471 11.3043 40.6471C17.6324 40.6471 23.9605 40.6471 30.2887 40.6471C34.4336 40.6471 38.5891 40.6366 42.734 40.6575C44.8539 40.6679 46.5309 42.0866 46.9105 44.1416C47.1004 45.1221 46.8789 46.0192 46.4465 46.9268ZM15.5336 9.01915C16.5566 13.8489 22.6105 17.5103 26.9453 16.9157C26.9453 15.8308 26.9559 14.7355 26.9348 13.6507C26.9348 13.5151 26.8398 13.3482 26.7449 13.2439C24.3824 10.4378 21.3871 8.87311 17.6535 8.80009C16.9574 8.7688 16.2508 8.9357 15.5336 9.01915ZM29.0547 16.9261C33.6215 17.4477 39.4328 13.7446 40.477 8.97742C39.5805 8.91484 38.684 8.7375 37.8191 8.80009C34.3492 9.01915 31.5227 10.5421 29.2973 13.1708C29.1918 13.296 29.0758 13.4629 29.0652 13.6194C29.0441 14.7251 29.0547 15.8308 29.0547 16.9261ZM35.1508 3.29233C34.9293 3.36535 34.75 3.4175 34.5707 3.49052C32.0605 4.52323 30.4363 6.40087 29.3289 8.78966C29.118 9.23821 29.1074 9.6346 29.3395 10.0519C29.3922 10.0414 29.4344 10.0414 29.4555 10.0206C31.0797 8.68535 32.8937 7.69437 34.9504 7.1415C35.0559 7.11021 35.2035 6.98503 35.2246 6.88072C35.4461 5.69154 35.4988 4.5128 35.1508 3.29233ZM25.9117 7.36056C24.6672 5.45162 23.0957 4.00166 20.8598 3.29233C20.5645 4.29374 20.6066 5.24299 20.6488 6.19225C20.6805 6.85986 20.9441 7.20409 21.6297 7.32927C22.1254 7.42315 22.5895 7.64221 23.0535 7.85084C23.6863 8.14291 24.298 8.46629 24.952 8.80009C24.8465 8.0386 25.1734 7.56919 25.9117 7.36056ZM27.9895 3.4175C27.557 4.00166 27.1984 4.50237 26.8293 4.99264C27.2301 5.5768 27.5992 6.11923 27.9895 6.69295C28.3797 6.11923 28.7488 5.5768 29.1391 5.00307C28.791 4.50237 28.4219 4.01209 27.9895 3.4175Z" fill="#089BAB"/>
<path d="M1 42.5456C1 41.2938 1 40.0421 1 38.7903C1.03164 38.7068 1.07383 38.6338 1.08438 38.5504C1.43242 36.4119 2.5293 34.7533 4.32227 33.5329C4.38555 33.4912 4.43828 33.4286 4.52266 33.3555C4.40664 33.2721 4.32227 33.2095 4.23789 33.1574C4.15352 33.0948 4.06914 33.0322 3.98477 32.9696C2.61367 31.9577 1.70664 30.633 1.25313 29.0057C1.1582 28.6614 1.08438 28.2963 1 27.9521C1 26.7003 1 25.4486 1 24.1968C1.03164 24.1029 1.07383 23.9986 1.09492 23.9047C1.81211 20.139 4.74414 17.7293 8.62539 17.7293C12.3379 17.7293 16.0398 17.7293 19.7523 17.7293C19.9316 17.7293 20.1215 17.7293 20.2586 17.7293C19.2566 17.0096 18.202 16.3524 17.2738 15.5492C15.1855 13.7446 13.7512 11.5122 13.2766 8.75837C13.1605 8.05946 13.3609 7.64221 14.0254 7.40229C14.616 7.19366 15.2277 6.98503 15.8395 6.89115C16.7359 6.75554 17.643 6.71382 18.5711 6.63037C18.5605 6.53648 18.55 6.42174 18.5395 6.30699C18.4023 4.81531 18.5184 3.35491 19.0457 1.94668C19.3305 1.17476 19.7523 0.882678 20.5434 1.11217C21.577 1.41468 22.6105 1.76934 23.5809 2.21789C24.2137 2.50997 24.7621 3.00025 25.3 3.36535C25.8906 2.72903 26.4496 2.07185 27.0719 1.4877C27.768 0.830521 28.2531 0.840953 28.9492 1.49813C29.5609 2.09272 30.1094 2.73946 30.7 3.37578C30.6895 3.37578 30.7316 3.37578 30.7527 3.35491C30.8793 3.26103 30.9953 3.15672 31.1219 3.06284C32.4191 2.03013 33.8746 1.33123 35.5199 1.06001C36.2371 0.945266 36.6801 1.15389 36.9121 1.84236C37.1125 2.44738 37.3234 3.07327 37.3762 3.69915C37.45 4.6797 37.3973 5.66025 37.3973 6.67209C37.6188 6.67209 37.777 6.67209 37.9246 6.67209C39.3273 6.66166 40.6879 6.83899 41.9957 7.37099C42.6074 7.62135 42.85 8.01774 42.734 8.64362C42.6496 9.13389 42.5441 9.6346 42.3859 10.1144C41.3102 13.369 39.0953 15.6744 36.1527 17.3643C35.9945 17.4581 35.8469 17.5416 35.5621 17.7085C35.8996 17.7085 36.0789 17.7085 36.2477 17.7085C40.0234 17.7085 43.7992 17.6981 47.5855 17.7085C50.9605 17.7189 53.8187 19.8678 54.7258 23.0702C54.8312 23.4353 54.9051 23.8108 55 24.1759C55 25.4277 55 26.6795 55 27.9312C54.9684 28.0251 54.9262 28.1294 54.9051 28.2233C54.557 30.2783 53.5129 31.8952 51.8043 33.1052C51.6988 33.1782 51.6039 33.2721 51.4773 33.366C51.6672 33.5016 51.8254 33.6163 51.973 33.7311C53.3547 34.7534 54.2828 36.0781 54.7469 37.7263C54.8418 38.0705 54.9156 38.4356 55 38.7799C55 40.0316 55 41.2834 55 42.5352C54.9684 42.6499 54.9156 42.7646 54.9051 42.8794C54.3145 46.3843 51.2875 48.9922 47.691 48.9922C34.5602 49.0026 21.4398 49.0026 8.30898 48.9922C4.98672 48.9922 2.06523 46.7077 1.23203 43.5366C1.14766 43.2236 1.07383 42.8898 1 42.5456ZM46.4359 32.3228C46.9 32.3228 47.2902 32.3333 47.6699 32.3228C50.1063 32.2707 52.2262 30.6434 52.7219 28.2859C52.9223 27.3471 52.8801 26.3561 52.8801 25.386C52.8906 22.0062 50.6652 19.8052 47.248 19.8052C36.7539 19.8052 26.2598 19.8052 15.7762 19.8052C13.2977 19.8052 10.8191 19.7843 8.34062 19.8156C5.9043 19.8365 3.81602 21.4325 3.28867 23.7691C2.94063 25.2817 2.94063 26.8568 3.28867 28.3693C3.84766 30.7686 5.95703 32.3228 8.50937 32.3228C18.5816 32.3228 28.6539 32.3228 38.7156 32.3228C40.0656 32.3228 41.4262 32.3333 42.7762 32.3228C43.8836 32.3124 44.7695 31.4883 44.8645 30.4243C44.9594 29.3603 44.2211 28.4006 43.1453 28.192C42.9027 28.1503 42.6602 28.1503 42.407 28.1503C39.2219 28.1503 36.0473 28.1503 32.8621 28.1503C32.166 28.1503 31.7125 27.733 31.6914 27.1384C31.6703 26.5439 32.1344 26.0744 32.7988 26.064C36.1949 26.0536 39.5805 26.0327 42.9766 26.0744C44.8645 26.0953 46.4992 27.5348 46.8895 29.3708C47.1004 30.393 46.9211 31.3423 46.4359 32.3228ZM46.4465 46.9268C46.9211 46.9268 47.3324 46.9372 47.7543 46.9268C50.275 46.8642 52.416 45.0387 52.7852 42.5664C52.9117 41.7006 52.8801 40.8035 52.8801 39.9169C52.8801 36.6414 50.6336 34.4195 47.3219 34.4195C43.7148 34.4195 40.1184 34.4195 36.5113 34.4195C27.1563 34.4195 17.8117 34.4195 8.45664 34.4195C5.9043 34.4195 3.74219 36.0468 3.25703 38.4565C3.04609 39.4788 3.09883 40.5636 3.09883 41.6172C3.09883 44.6423 5.39805 46.9268 8.46719 46.9268C19.8367 46.9372 31.2062 46.9268 42.5863 46.9268C43.9047 46.9268 44.8539 46.0401 44.8539 44.8301C44.8539 43.6305 43.9047 42.7542 42.5652 42.7542C35.2141 42.7542 27.8734 42.7542 20.5223 42.7542C17.3582 42.7542 14.1941 42.7646 11.0301 42.7438C9.31094 42.7334 7.93984 41.3147 7.93984 39.6144C7.93984 37.9349 9.33203 36.5163 10.9879 36.485C11.6312 36.4745 12.1059 36.8709 12.1586 37.4446C12.2008 38.0184 11.7895 38.4774 11.1566 38.5608C10.4395 38.6547 10.0387 39.0719 10.0598 39.6561C10.0914 40.2611 10.566 40.6471 11.3043 40.6471C17.6324 40.6471 23.9605 40.6471 30.2887 40.6471C34.4336 40.6471 38.5891 40.6366 42.734 40.6575C44.8539 40.6679 46.5309 42.0866 46.9105 44.1416C47.1004 45.1221 46.8789 46.0192 46.4465 46.9268ZM15.5336 9.01915C16.5566 13.8489 22.6105 17.5103 26.9453 16.9157C26.9453 15.8308 26.9559 14.7355 26.9348 13.6507C26.9348 13.5151 26.8398 13.3482 26.7449 13.2439C24.3824 10.4378 21.3871 8.87311 17.6535 8.80009C16.9574 8.7688 16.2508 8.9357 15.5336 9.01915ZM29.0547 16.9261C33.6215 17.4477 39.4328 13.7446 40.477 8.97742C39.5805 8.91484 38.684 8.7375 37.8191 8.80009C34.3492 9.01915 31.5227 10.5421 29.2973 13.1708C29.1918 13.296 29.0758 13.4629 29.0652 13.6194C29.0441 14.7251 29.0547 15.8308 29.0547 16.9261ZM35.1508 3.29233C34.9293 3.36535 34.75 3.4175 34.5707 3.49052C32.0605 4.52323 30.4363 6.40087 29.3289 8.78966C29.118 9.23821 29.1074 9.6346 29.3395 10.0519C29.3922 10.0414 29.4344 10.0414 29.4555 10.0206C31.0797 8.68535 32.8937 7.69437 34.9504 7.1415C35.0559 7.11021 35.2035 6.98503 35.2246 6.88072C35.4461 5.69154 35.4988 4.5128 35.1508 3.29233ZM25.9117 7.36056C24.6672 5.45162 23.0957 4.00166 20.8598 3.29233C20.5645 4.29374 20.6066 5.24299 20.6488 6.19225C20.6805 6.85986 20.9441 7.20409 21.6297 7.32927C22.1254 7.42315 22.5895 7.64221 23.0535 7.85084C23.6863 8.14291 24.298 8.46629 24.952 8.80009C24.8465 8.0386 25.1734 7.56919 25.9117 7.36056ZM27.9895 3.4175C27.557 4.00166 27.1984 4.50237 26.8293 4.99264C27.2301 5.5768 27.5992 6.11923 27.9895 6.69295C28.3797 6.11923 28.7488 5.5768 29.1391 5.00307C28.791 4.50237 28.4219 4.01209 27.9895 3.4175Z" stroke="#089BAB" stroke-width="0.6" mask="url(#path-2-outside-1)"/>
<path d="M7.83356 25.4596L7.83355 25.4596L7.83373 25.4607C8.07651 27.0543 9.42342 28.2679 11.0596 28.2899C12.4846 28.3122 13.9157 28.308 15.3467 28.3037C15.9189 28.302 16.4911 28.3003 17.0629 28.3003C17.6959 28.3003 18.3275 28.3003 18.9588 28.3107L18.9588 28.3107H18.9613C19.425 28.3107 19.8878 28.3119 20.3505 28.3131C21.2756 28.3154 22.2 28.3177 23.1285 28.3107L23.1295 28.3107C23.5168 28.3051 23.8519 28.1864 24.0909 27.9726C24.3316 27.7573 24.4645 27.4541 24.4586 27.1046C24.4526 26.7572 24.3172 26.4602 24.0744 26.2504C23.8336 26.0424 23.4989 25.9301 23.1084 25.9245L23.1084 25.9245H23.1062H23.1055H23.1048H23.104H23.1033H23.1025H23.1018H23.101H23.1003H23.0996H23.0988H23.0981H23.0974H23.0966H23.0959H23.0951H23.0944H23.0937H23.0929H23.0922H23.0914H23.0907H23.09H23.0892H23.0885H23.0878H23.087H23.0863H23.0856H23.0848H23.0841H23.0834H23.0826H23.0819H23.0812H23.0804H23.0797H23.079H23.0782H23.0775H23.0768H23.076H23.0753H23.0746H23.0738H23.0731H23.0724H23.0716H23.0709H23.0702H23.0694H23.0687H23.068H23.0672H23.0665H23.0658H23.0651H23.0643H23.0636H23.0629H23.0621H23.0614H23.0607H23.06H23.0592H23.0585H23.0578H23.057H23.0563H23.0556H23.0549H23.0541H23.0534H23.0527H23.052H23.0512H23.0505H23.0498H23.0491H23.0483H23.0476H23.0469H23.0462H23.0454H23.0447H23.044H23.0433H23.0425H23.0418H23.0411H23.0404H23.0396H23.0389H23.0382H23.0375H23.0367H23.036H23.0353H23.0346H23.0338H23.0331H23.0324H23.0317H23.031H23.0302H23.0295H23.0288H23.0281H23.0274H23.0266H23.0259H23.0252H23.0245H23.0238H23.023H23.0223H23.0216H23.0209H23.0202H23.0194H23.0187H23.018H23.0173H23.0166H23.0158H23.0151H23.0144H23.0137H23.013H23.0122H23.0115H23.0108H23.0101H23.0094H23.0087H23.0079H23.0072H23.0065H23.0058H23.0051H23.0043H23.0036H23.0029H23.0022H23.0015H23.0008H23H22.9993H22.9986H22.9979H22.9972H22.9965H22.9958H22.995H22.9943H22.9936H22.9929H22.9922H22.9915H22.9907H22.99H22.9893H22.9886H22.9879H22.9872H22.9865H22.9857H22.985H22.9843H22.9836H22.9829H22.9822H22.9815H22.9807H22.98H22.9793H22.9786H22.9779H22.9772H22.9765H22.9757H22.975H22.9743H22.9736H22.9729H22.9722H22.9715H22.9708H22.97H22.9693H22.9686H22.9679H22.9672H22.9665H22.9658H22.9651H22.9643H22.9636H22.9629H22.9622H22.9615H22.9608H22.9601H22.9594H22.9586H22.9579H22.9572H22.9565H22.9558H22.9551H22.9544H22.9537H22.9529H22.9522H22.9515H22.9508H22.9501H22.9494H22.9487H22.948H22.9473H22.9465H22.9458H22.9451H22.9444H22.9437H22.943H22.9423H22.9416H22.9409H22.9401H22.9394H22.9387H22.938H22.9373H22.9366H22.9359H22.9352H22.9345H22.9337H22.933H22.9323H22.9316H22.9309H22.9302H22.9295H22.9288H22.9281H22.9274H22.9266H22.9259H22.9252H22.9245H22.9238H22.9231H22.9224H22.9217H22.921H22.9202H22.9195H22.9188H22.9181H22.9174H22.9167H22.916H22.9153H22.9146H22.9138H22.9131H22.9124H22.9117H22.911H22.9103H22.9096H22.9089H22.9082H22.9074H22.9067H22.906H22.9053H22.9046H22.9039H22.9032H22.9025H22.9018H22.9011H22.9003H22.8996H22.8989H22.8982H22.8975H22.8968H22.8961H22.8954H22.8947H22.8939H22.8932H22.8925H22.8918H22.8911H22.8904H22.8897H22.889H22.8882H22.8875H22.8868H22.8861H22.8854H22.8847H22.884H22.8833H22.8826H22.8818H22.8811H22.8804H22.8797H22.879H22.8783H22.8776H22.8769H22.8761H22.8754H22.8747H22.874H22.8733H22.8726H22.8719H22.8712H22.8704H22.8697H22.869H22.8683H22.8676H22.8669H22.8662H22.8654H22.8647H22.864H22.8633H22.8626H22.8619H22.8612H22.8604H22.8597H22.859H22.8583H22.8576H22.8569H22.8562H22.8554H22.8547H22.854H22.8533H22.8526H22.8519H22.8512H22.8504H22.8497H22.849H22.8483H22.8476H22.8469H22.8461H22.8454H22.8447H22.844H22.8433H22.8426H22.8418H22.8411H22.8404H22.8397H22.839H22.8383H22.8375H22.8368H22.8361H22.8354H22.8347H22.834H22.8332H22.8325H22.8318H22.8311H22.8304H22.8296H22.8289H22.8282H22.8275H22.8268H22.8261H22.8253H22.8246H22.8239H22.8232H22.8225H22.8217H22.821H22.8203H22.8196H22.8189H22.8181H22.8174H22.8167H22.816H22.8153H22.8145H22.8138H22.8131H22.8124H22.8116H22.8109H22.8102H22.8095H22.8088H22.808H22.8073H22.8066H22.8059H22.8051H22.8044H22.8037H22.803H22.8022H22.8015H22.8008H22.8001H22.7994H22.7986H22.7979H22.7972H22.7965H22.7957H22.795H22.7943H22.7936H22.7928H22.7921H22.7914H22.7906H22.7899H22.7892H22.7885H22.7877H22.787H22.7863H22.7856H22.7848H22.7841H22.7834H22.7826H22.7819H22.7812H22.7805H22.7797H22.779H22.7783H22.7775H22.7768H22.7761H22.7754H22.7746H22.7739H22.7732H22.7724H22.7717H22.771H22.7702H22.7695H22.7688H22.768H22.7673H22.7666H22.7658H22.7651H22.7644H22.7636H22.7629H22.7622H22.7614H22.7607H22.76H22.7592H22.7585H22.7578H22.757H22.7563H22.7556H22.7548H22.7541H22.7534H22.7526H22.7519H22.7511H22.7504H22.7497H22.7489H22.7482H22.7475H22.7467H22.746H22.7452H22.7445H22.7438H22.743H22.7423H22.7415H22.7408H22.7401H22.7393H22.7386H22.7378H22.7371H22.7153H22.6935H22.6716H22.6498H22.628H22.6062H22.5844H22.5626H22.5408H22.5189H22.4971H22.4753H22.4535H22.4317H22.4099H22.3881H22.3662H22.3444H22.3226H22.3008H22.279H22.2572H22.2354H22.2135H22.1917H22.1699H22.1481H22.1263H22.1045H22.0827H22.0608H22.039H22.0172H21.9954H21.9736H21.9518H21.9299H21.9081H21.8863H21.8645H21.8427H21.8209H21.7991H21.7772H21.7554H21.7336H21.7118H21.69H21.6682H21.6464H21.6245H21.6027H21.5809H21.5591H21.5373H21.5155H21.4937H21.4718H21.45H21.4282H21.4064H21.3846H21.3628H21.341H21.3191H21.2973H21.2755H21.2537H21.2319H21.2101H21.1882H21.1664H21.1446H21.1228H21.101H21.0792H21.0574H21.0355H21.0137H20.9919H20.9701H20.9483H20.9265H20.9047H20.8828H20.861H20.8392H20.8174H20.7956H20.7738H20.752H20.7301H20.7083H20.6865H20.6647H20.6429H20.6211H20.5993H20.5774H20.5556H20.5338H20.512H20.4902H20.4684H20.4465H20.4247H20.4029H20.3811H20.3593H20.3375H20.3157H20.2938H20.272H20.2502H20.2284H20.2066H20.1848H20.163H20.1411H20.1193H20.0975H20.0757H20.0539H20.0321H20.0103H19.9884H19.9666H19.9448H19.923H19.9012H19.8794H19.8575H19.8357H19.8139H19.7921H19.7703H19.7485H19.7267H19.7048H19.683H19.6612H19.6394H19.6176H19.5958H19.574H19.5521H19.5303H19.5085H19.4867H19.4649H19.4431H19.4213H19.3994H19.3776H19.3558H19.334H19.3122H19.2904H19.2686H19.2467H19.2249H19.2031H19.1813H19.1595H19.1377H19.1158H19.094H19.0722H19.0504H19.0286H19.0068H18.985H18.9631H18.9413H18.9195H18.8977H18.8759H18.8541H18.8323H18.8104H18.7886H18.7668H18.745H18.7232H18.7014H18.6796H18.6577H18.6359H18.6141H18.5923H18.5705H18.5487H18.5269H18.505H18.4832H18.4614H18.4396H18.4178H18.396H18.3741H18.3523H18.3305H18.3087H18.2869H18.2651H18.2433H18.2214H18.1996H18.1778H18.156H18.1342H18.1124H18.0906H18.0687H18.0469H18.0251H18.0033H17.9815H17.9597H17.9379H17.916H17.8942H17.8724H17.8506H17.8288H17.807H17.7852H17.7633H17.7415H17.7197H17.6979H17.6761H17.6543H17.6324H17.6106H17.5888H17.567H17.5452H17.5234H17.5016H17.4797H17.4579H17.4361H17.4143H17.3925H17.3707H17.3489H17.327H17.3052H17.2834H17.2616H17.2398H17.218H17.1962H17.1743H17.1525H17.1307H17.1089H17.0871H17.0653H17.0435H17.0216H16.9998H16.978H16.9562H16.9344H16.9126H16.8907H16.8689H16.8471H16.8253H16.8035H16.7817H16.7599H16.738H16.7162H16.6944H16.6726H16.6508H16.629H16.6072H16.5853H16.5635H16.5417H16.5199H16.4981H16.4763H16.4545H16.4326H16.4108H16.389H16.3672H16.3454H16.3236H16.3017H16.2799H16.2581H16.2363H16.2145H16.1927H16.1709H16.149H16.1272H16.1054H16.0836H16.0618H16.04H16.0182H15.9963H15.9745H15.9527H15.9309H15.9091H15.8873H15.8655H15.8436H15.8218H15.8H15.7782H15.7564H15.7346H15.7128H15.6909H15.6691H15.6473H15.6255H15.6037H15.5819H15.56H15.5382H15.5164H15.4946H15.4728H15.451H15.4292H15.4073H15.3855H15.3637H15.3419H15.3201H15.2983H15.2765H15.2546H15.2328H15.211H15.1892H15.1674H15.1456H15.1238H15.1019H15.0801H15.0583H15.0365H15.0147H14.9929H14.9711H14.9492H14.9274H14.9056H14.8838H14.862H14.8402H14.8183H14.7965H14.7747H14.7529H14.7311H14.7093H14.6875H14.6656H14.6438H14.622H14.6002H14.5784H14.5566H14.5348H14.5129H14.4911H14.4693H14.4475H14.4257H14.4039H14.3821H14.3602H14.3384H14.3166H14.2948H14.273H14.2512H14.2294H14.2075H14.1857H14.1639H14.1421H14.1203H14.0985H14.0766H14.0548H14.033H14.0112H13.9894H13.9676H13.9458H13.9239H13.9021H13.8803H13.8585H13.8367H13.8149H13.7931H13.7712H13.7494H13.7276H13.7058H13.684H13.6622H13.6404H13.6185H13.5967H13.5749H13.5531H13.5313H13.5095H13.4876H13.4658H13.444H13.4222H13.4004H13.3786H13.3568H13.3349H13.3131H13.2913H13.2695H13.2477H13.2259H13.2041H13.1822H13.1604H13.1386H13.1168H13.095H13.0732H13.0514H13.0295H13.0077H12.9859H12.9641H12.9423H12.9205H12.8987H12.8768H12.855H12.8332H12.8114H12.7896H12.7678H12.7459H12.7241H12.7023H12.6805H12.6587H12.6369H12.6151H12.5932H12.5714H12.5496H12.5278H12.506H12.4842H12.4624H12.4405H12.4187H12.3969H12.3751H12.3533H12.3315H12.3097H12.2878H12.266H12.2442H12.2224H12.2006H12.1788H12.157H12.1351H12.1133H12.0915H12.0697H12.0479H12.0261H12.0042H11.9824H11.9606H11.9388H11.917H11.8952H11.8734H11.8515H11.8297H11.8079H11.7861H11.7643H11.7425H11.7207H11.6988H11.677H11.6552H11.6334H11.6116H11.5898H11.568C11.5175 25.9245 11.4691 25.9252 11.4224 25.9258C11.2919 25.9277 11.1743 25.9294 11.059 25.9152L11.059 25.9151L11.0557 25.9148C10.6084 25.8696 10.2663 25.5182 10.2303 25.1022C10.1947 24.6692 10.4997 24.255 10.9565 24.1556L10.9565 24.1556L10.958 24.1553C11.0136 24.1426 11.0733 24.1379 11.1465 24.1326L11.1511 24.1322C11.2193 24.1272 11.3001 24.1213 11.3798 24.1031L11.3798 24.1031L11.3811 24.1028C11.9782 23.9611 12.3777 23.4159 12.3292 22.8284L12.3292 22.8284L12.3289 22.8257C12.2689 22.2325 11.787 21.7519 11.1566 21.7519C10.7943 21.7519 10.4202 21.8061 10.0774 21.9155L10.0774 21.9155L10.0767 21.9157C8.56391 22.4072 7.61194 23.9253 7.83356 25.4596Z" fill="#089BAB" stroke="#089BAB" stroke-width="0.3"/>
<path d="M27.9763 25.914L27.9762 25.914C27.3391 25.9259 26.7961 26.4582 26.7954 27.0954C26.784 27.7664 27.3513 28.3122 28.0133 28.3003L28.0134 28.3003C28.6535 28.2883 29.1821 27.7535 29.1942 27.1204L29.1942 27.1203C29.2063 26.46 28.6397 25.9021 27.9763 25.914Z" fill="#089BAB" stroke="#089BAB" stroke-width="0.3"/>
</svg>
