<svg width="48" height="48" viewBox="0 0 48 48" fill="none" xmlns="http://www.w3.org/2000/svg">
<path opacity="0.25" d="M25.4142 6.58579C24.6332 5.80474 23.3668 5.80474 22.5858 6.58579C21.8047 7.36683 21.8047 8.63317 22.5858 9.41421L24.5857 11.4142L11.0274 24.9725C9.13597 26.8639 8.31499 29.5754 8.83957 32.1983L9.9999 38L15.8016 39.1603C18.4245 39.6849 21.136 38.8639 23.0274 36.9725C29.1848 30.8151 31.5503 28.4496 36.5857 23.4142L38.5858 25.4142C39.3668 26.1953 40.6332 26.1953 41.4142 25.4142C42.1953 24.6332 42.1953 23.3668 41.4142 22.5858L25.4142 6.58579Z" fill="#089BAB"/>
<path fill-rule="evenodd" clip-rule="evenodd" d="M14 34.0001C14.781 34.7811 14.781 36.0475 14 36.8285L7.41421 43.4143C6.63316 44.1954 5.36683 44.1954 4.58579 43.4143C3.80474 42.6333 3.80474 41.3669 4.58579 40.5859L11.1716 34.0001C11.9526 33.219 13.219 33.219 14 34.0001Z" fill="#089BAB"/>
<path d="M33.4142 26.5857L29.4142 22.5858C28.6332 21.8047 27.3668 21.8047 26.5858 22.5858C25.8047 23.3668 25.8047 24.6332 26.5858 25.4142L30.5857 29.4142L33.4142 26.5857Z" fill="#089BAB"/>
<path d="M27.4142 32.5857L23.4142 28.5858C22.6332 27.8047 21.3668 27.8047 20.5858 28.5858C19.8047 29.3668 19.8047 30.6332 20.5858 31.4142L24.5857 35.4142L27.4142 32.5857Z" fill="#089BAB"/>
<path d="M35.4142 4.58579C34.6331 3.80474 33.3668 3.80474 32.5857 4.58579C31.8047 5.36683 31.8047 6.63316 32.5857 7.41421L35.1716 10.0001L32.0001 13.1716C31.219 13.9527 31.219 15.219 32.0001 16C32.7811 16.7811 34.0475 16.7811 34.8285 16L38 12.8285L40.5857 15.4142C41.3668 16.1953 42.6331 16.1953 43.4142 15.4142C44.1952 14.6332 44.1952 13.3668 43.4142 12.5858L35.4142 4.58579Z" fill="#089BAB"/>
</svg>
