<svg width="22" height="22" viewBox="0 0 22 22" fill="none" xmlns="http://www.w3.org/2000/svg">
<path d="M13.7957 4.58317C14.6911 4.75786 15.5139 5.19574 16.159 5.84078C16.804 6.48582 17.2419 7.30866 17.4166 8.204M13.7957 0.916504C15.6559 1.12315 17.3905 1.95616 18.7148 3.27876C20.039 4.60136 20.8742 6.33493 21.0832 8.19484M20.1666 15.5098V18.2598C20.1676 18.5151 20.1153 18.7678 20.013 19.0017C19.9108 19.2357 19.7608 19.4456 19.5726 19.6182C19.3845 19.7908 19.1624 19.9222 18.9206 20.004C18.6787 20.0858 18.4225 20.1161 18.1682 20.0932C15.3475 19.7867 12.638 18.8228 10.2574 17.279C8.04257 15.8716 6.16479 13.9938 4.7574 11.779C3.20821 9.38761 2.24412 6.66492 1.94323 3.8315C1.92032 3.57802 1.95045 3.32253 2.03169 3.08133C2.11293 2.84012 2.2435 2.61847 2.4151 2.43049C2.5867 2.24251 2.79555 2.09232 3.02837 1.98948C3.26119 1.88664 3.51288 1.83341 3.7674 1.83317H6.5174C6.96226 1.82879 7.39354 1.98633 7.73085 2.27641C8.06815 2.56649 8.28847 2.96933 8.35073 3.40984C8.4668 4.2899 8.68206 5.154 8.9924 5.98567C9.11573 6.31377 9.14242 6.67034 9.06931 7.01314C8.9962 7.35595 8.82636 7.67061 8.5799 7.91984L7.41573 9.084C8.72066 11.3789 10.6208 13.2791 12.9157 14.584L14.0799 13.4198C14.3291 13.1734 14.6438 13.0035 14.9866 12.9304C15.3294 12.8573 15.686 12.884 16.0141 13.0073C16.8457 13.3177 17.7098 13.5329 18.5899 13.649C19.0352 13.7118 19.4419 13.9361 19.7326 14.2792C20.0233 14.6223 20.1777 15.0603 20.1666 15.5098Z" stroke="#12022F" stroke-width="1.5" stroke-linecap="round" stroke-linejoin="round"/>
</svg>
