<svg width="24" height="24" viewBox="0 0 24 24" fill="none" xmlns="http://www.w3.org/2000/svg">
<path fill-rule="evenodd" clip-rule="evenodd" d="M14 3H10C7.23858 3 5 5.23858 5 8V16C5 18.7614 7.23858 21 10 21H13.9946L14.2114 20.9953C16.8717 20.8802 18.9934 18.6886 18.9959 16.001L19 7.99865C19 5.23686 16.7609 2.99831 14 3ZM14.0006 5L14.1768 5.00499C15.6928 5.09195 16.907 6.30587 16.9949 7.82237L16.9986 7.99966L16.9959 15.9997C16.9944 17.656 15.6509 18.999 13.994 19H10C8.34315 19 7 17.6569 7 16V8C7 6.34315 8.34315 5 10 5L14.0006 5Z" fill="#089BAB"/>
<g opacity="0.5">
<circle cx="12" cy="16" r="1" fill="#089BAB"/>
</g>
</svg>
