<svg width="48" height="48" viewBox="0 0 48 48" fill="none" xmlns="http://www.w3.org/2000/svg">
<path d="M18 34C16.8954 34 16 34.8954 16 36V40C16 41.1046 16.8954 42 18 42C19.1046 42 20 41.1046 20 40V36C20 34.8954 19.1046 34 18 34Z" fill="#089BAB"/>
<path d="M28 36C28 34.8954 27.1046 34 26 34C24.8954 34 24 34.8954 24 36V40C24 43.3137 26.6863 46 30 46H40C41.1046 46 42 45.1046 42 44C42 42.8954 41.1046 42 40 42H30C28.8954 42 28 41.1046 28 40V36Z" fill="#089BAB"/>
<path opacity="0.25" d="M26 6C26 3.79086 24.2091 2 22 2C19.7909 2 18 3.79086 18 6H12C8.68629 6 6 8.68629 6 12V32C6 35.3137 8.68629 38 12 38H32C35.3137 38 38 35.3137 38 32C38 24.5141 38 24.8508 38 12C38 8.68629 35.3137 6 32 6H26Z" fill="#089BAB"/>
<path d="M32 16C30.8954 16 30 16.8954 30 18C30 19.1046 30.8954 20 32 20H38V16H32Z" fill="#089BAB"/>
<path d="M32 24C30.8954 24 30 24.8954 30 26C30 27.1046 30.8954 28 32 28H38V24H32Z" fill="#089BAB"/>
</svg>
