<svg width="198" height="17" viewBox="0 0 198 17" fill="none" xmlns="http://www.w3.org/2000/svg">
<path d="M15.864 13.728V5.408C15.864 3.712 15.416 2.4 14.584 1.472C13.72 0.575999 12.472 0.0959997 10.84 0.0959997C8.472 0.0959997 6.584 1.12 5.24 3.136V0.287999C3.16 0.287999 1.88 0.415999 1.432 0.639999C0.952 0.863999 0.728 1.568 0.728 2.72V16H5.24V7.936C5.24 6.784 5.592 5.856 6.296 5.152C7 4.48 7.8 4.128 8.728 4.128C10.456 4.128 11.352 5.184 11.352 7.264V16.128C13.4 16.128 14.68 16.032 15.16 15.808C15.608 15.584 15.864 14.88 15.864 13.728ZM33.7583 9.472V0.415999H29.2463V8.96C29.2463 11.232 28.2543 12.352 26.3343 12.352C24.4783 12.352 23.5823 11.232 23.5823 8.96V0.287999C21.5023 0.287999 20.2223 0.415999 19.7743 0.639999C19.2943 0.863999 19.0703 1.568 19.0703 2.72V9.472C19.0703 11.776 19.7103 13.504 21.0543 14.624C22.3983 15.776 24.1583 16.32 26.3343 16.32C28.5103 16.32 30.2703 15.776 31.6783 14.624C33.0543 13.472 33.7583 11.776 33.7583 9.472ZM41.6775 16V9.728C41.6775 7.616 42.1575 6.144 43.1495 5.312C44.1095 4.512 45.5495 4.256 47.4695 4.544C47.5975 2.816 47.5335 1.664 47.3415 1.024C47.1495 0.415999 46.7015 0.0959997 46.0295 0.0959997C44.3335 0.0959997 42.8935 1.216 41.6775 3.424V0.287999C39.5975 0.287999 38.3175 0.415999 37.8695 0.639999C37.3895 0.863999 37.1655 1.568 37.1655 2.72V16H41.6775ZM60.8328 11.392C60.8328 10.368 60.5768 9.568 60.0968 8.928C59.5848 8.288 59.0088 7.872 58.3368 7.616C57.6328 7.36 56.9608 7.168 56.2568 6.976C55.5528 6.816 54.9768 6.56 54.4968 6.24C53.9848 5.92 53.7608 5.472 53.7608 4.896C53.7608 4.48 53.9208 4.128 54.2728 3.808C54.5928 3.488 55.0728 3.328 55.6808 3.328C57.0248 3.328 57.6968 3.968 57.6968 5.248V5.792H58.9448C60.5448 5.792 61.3448 5.152 61.3448 3.84C61.3448 2.752 60.8008 1.856 59.7768 1.152C58.7528 0.447999 57.3767 0.0959997 55.6488 0.0959997C53.7288 0.0959997 52.1288 0.607999 50.8488 1.568C49.5688 2.56 48.9288 3.872 48.9288 5.504C48.9288 6.432 49.0888 7.232 49.4408 7.872C49.7928 8.512 50.2408 8.992 50.7528 9.28C51.2648 9.6 51.8408 9.856 52.4488 10.08C53.0568 10.304 53.6328 10.464 54.1448 10.56C54.6568 10.688 55.1048 10.848 55.4568 11.04C55.8088 11.232 56.0008 11.488 56.0008 11.808C56.0008 12.64 55.1688 13.056 53.5048 13.056C52.2888 13.056 51.1048 12.8 49.9528 12.256V13.344C49.9528 14.464 50.4008 15.232 51.3608 15.68C52.2888 16.128 53.3768 16.32 54.6248 16.32C56.3528 16.32 57.7928 15.904 59.0088 15.072C60.2248 14.24 60.8328 12.992 60.8328 11.392ZM77.136 12.096C75.76 12.608 74.384 12.832 73.008 12.832C70.256 12.832 68.592 11.776 68.016 9.664H75.632C77.328 9.664 78.192 8.992 78.192 7.616C78.192 5.312 77.552 3.488 76.272 2.144C74.992 0.799999 73.2 0.0959997 70.896 0.0959997C68.528 0.0959997 66.64 0.831999 65.2 2.24C63.76 3.68 63.056 5.504 63.056 7.712C63.056 10.496 63.76 12.64 65.232 14.112C66.704 15.584 68.656 16.32 71.088 16.32C72.08 16.32 73.008 16.256 73.872 16.064C74.736 15.872 75.504 15.552 76.144 15.04C76.784 14.56 77.136 13.952 77.136 13.248V12.096ZM70.832 3.232C71.632 3.232 72.272 3.52 72.752 4.032C73.2 4.544 73.456 5.248 73.456 6.112C73.456 6.624 73.2 6.88 72.72 6.88H67.76C67.888 4.448 68.912 3.232 70.832 3.232ZM93.6895 12.032C92.5695 12.544 91.2895 12.768 89.8815 12.768C86.4255 12.768 84.6975 11.072 84.6975 7.68C84.6975 6.496 84.9855 5.536 85.6255 4.768C86.2335 4 87.0335 3.616 88.0575 3.616C89.5935 3.616 90.3935 4.448 90.3935 6.08V6.72H91.6415C92.4095 6.72 93.0495 6.528 93.5615 6.144C94.0415 5.76 94.2975 5.152 94.2975 4.32C94.2975 2.976 93.7215 1.952 92.5695 1.216C91.4175 0.48 89.9455 0.0959997 88.2175 0.0959997C85.7535 0.0959997 83.7695 0.799999 82.2655 2.176C80.7295 3.552 79.9935 5.376 79.9935 7.68C79.9935 10.432 80.6975 12.544 82.1055 14.048C83.5135 15.584 85.4655 16.32 87.9615 16.32C89.6255 16.32 90.9695 16.096 92.0575 15.584C93.1455 15.072 93.6895 14.272 93.6895 13.12V12.032ZM111.741 7.904C111.741 5.472 111.037 3.552 109.629 2.176C108.221 0.799999 106.301 0.0959997 103.805 0.0959997C101.277 0.0959997 99.3253 0.799999 97.9173 2.176C96.5093 3.552 95.8372 5.472 95.8372 7.904C95.8372 10.432 96.5413 12.48 98.0133 14.016C99.4852 15.552 101.405 16.32 103.805 16.32C106.173 16.32 108.061 15.552 109.533 14.016C111.005 12.48 111.741 10.432 111.741 7.904ZM107.037 7.904C107.037 9.216 106.749 10.304 106.173 11.2C105.597 12.096 104.829 12.544 103.805 12.544C102.749 12.544 101.949 12.096 101.373 11.2C100.797 10.304 100.541 9.216 100.541 7.904C100.541 5.152 101.629 3.776 103.805 3.776C105.949 3.776 107.037 5.152 107.037 7.904ZM138.189 13.728V5.184C138.189 3.584 137.805 2.336 137.069 1.44C136.333 0.544 135.245 0.0959997 133.773 0.0959997C131.533 0.0959997 129.708 1.12 128.333 3.104C127.661 1.12 126.253 0.0959997 124.141 0.0959997C122.029 0.0959997 120.333 1.088 119.053 3.008V0.287999C116.973 0.287999 115.693 0.415999 115.245 0.639999C114.765 0.863999 114.541 1.568 114.541 2.72V16H119.053V7.872C119.053 6.72 119.309 5.792 119.885 5.12C120.461 4.48 121.133 4.128 121.965 4.128C123.373 4.128 124.109 5.12 124.109 7.04V16H128.621V7.776C128.621 6.656 128.941 5.76 129.517 5.12C130.093 4.48 130.765 4.128 131.533 4.128C132.941 4.128 133.677 5.12 133.677 7.04V16.128C135.725 16.128 137.005 16.032 137.485 15.808C137.933 15.584 138.189 14.88 138.189 13.728ZM154.855 12.096C153.479 12.608 152.103 12.832 150.727 12.832C147.975 12.832 146.311 11.776 145.735 9.664H153.351C155.047 9.664 155.911 8.992 155.911 7.616C155.911 5.312 155.271 3.488 153.991 2.144C152.711 0.799999 150.919 0.0959997 148.615 0.0959997C146.247 0.0959997 144.359 0.831999 142.919 2.24C141.479 3.68 140.775 5.504 140.775 7.712C140.775 10.496 141.479 12.64 142.951 14.112C144.423 15.584 146.375 16.32 148.807 16.32C149.799 16.32 150.727 16.256 151.591 16.064C152.455 15.872 153.223 15.552 153.863 15.04C154.503 14.56 154.855 13.952 154.855 13.248V12.096ZM148.551 3.232C149.351 3.232 149.991 3.52 150.471 4.032C150.919 4.544 151.175 5.248 151.175 6.112C151.175 6.624 150.919 6.88 150.439 6.88H145.479C145.607 4.448 146.631 3.232 148.551 3.232ZM161.327 16.288C163.375 16.288 164.399 15.264 164.399 13.216C164.399 11.168 163.375 10.144 161.327 10.144C159.279 10.144 158.255 11.168 158.255 13.216C158.255 15.264 159.279 16.288 161.327 16.288ZM166.865 11.616C166.865 12.896 167.249 14.016 168.049 14.944C168.817 15.872 169.969 16.32 171.473 16.32C173.585 16.32 175.345 15.456 176.689 13.696L176.849 16.128C177.489 16.128 177.937 16.128 178.257 16.128C178.545 16.128 178.929 16.096 179.377 16.064C179.825 16.032 180.145 15.968 180.337 15.904C180.529 15.84 180.721 15.712 180.945 15.584C181.169 15.456 181.329 15.296 181.393 15.072C181.457 14.88 181.489 14.624 181.489 14.304L180.913 6.4C180.721 4 180.049 2.336 178.833 1.44C177.617 0.544 176.081 0.0959997 174.193 0.0959997C173.297 0.0959997 172.433 0.191999 171.601 0.383999C170.769 0.575999 170.001 0.895999 169.329 1.376C168.657 1.856 168.337 2.432 168.337 3.136V4.352C169.809 3.744 171.121 3.424 172.273 3.424C174.833 3.424 176.177 4.48 176.305 6.528V6.624L172.785 6.976C168.817 7.36 166.865 8.896 166.865 11.616ZM171.761 11.36C171.761 10.912 171.889 10.528 172.209 10.208C172.529 9.888 172.945 9.696 173.489 9.6L176.433 9.248C176.369 10.272 176.081 11.2 175.537 12C174.961 12.8 174.289 13.184 173.457 13.184C172.913 13.184 172.497 13.024 172.209 12.672C171.889 12.352 171.761 11.904 171.761 11.36ZM197.692 16V12.48H190.14L197.308 3.648C197.628 2.752 197.756 1.696 197.66 0.415999H186.012C185.692 0.415999 185.404 0.48 185.212 0.575999C185.02 0.671999 184.86 0.768 184.732 0.895999C184.604 1.024 184.54 1.28 184.508 1.632C184.444 2.016 184.412 2.336 184.412 2.592C184.412 2.88 184.412 3.328 184.412 3.968H191.292L184.156 12.768C183.804 13.728 183.676 14.784 183.804 16H197.692Z" fill="#000"/>
</svg>
