<svg width="103" height="15" viewBox="0 0 103 15" fill="none" xmlns="http://www.w3.org/2000/svg">
<path d="M11.92 13.5V1.12H9V9.1L3.08 0.919999C1.96 0.999999 1 1.24 0.24 1.64V14H3.16V5.94L9.08 14.24C10.16 14.16 11.12 13.92 11.92 13.5ZM23.3802 9.92V4.26H20.5602V9.6C20.5602 11.02 19.9402 11.72 18.7402 11.72C17.5802 11.72 17.0202 11.02 17.0202 9.6V4.18C15.7202 4.18 14.9202 4.26 14.6402 4.4C14.3402 4.54 14.2002 4.98 14.2002 5.7V9.92C14.2002 11.36 14.6002 12.44 15.4402 13.14C16.2802 13.86 17.3802 14.2 18.7402 14.2C20.1002 14.2 21.2002 13.86 22.0802 13.14C22.9402 12.42 23.3802 11.36 23.3802 9.92ZM28.3297 14V10.08C28.3297 8.76 28.6297 7.84 29.2497 7.32C29.8497 6.82 30.7497 6.66 31.9497 6.84C32.0297 5.76 31.9897 5.04 31.8697 4.64C31.7497 4.26 31.4697 4.06 31.0497 4.06C29.9897 4.06 29.0897 4.76 28.3297 6.14V4.18C27.0297 4.18 26.2297 4.26 25.9497 4.4C25.6497 4.54 25.5097 4.98 25.5097 5.7V14H28.3297ZM40.3017 11.12C40.3017 10.48 40.1417 9.98 39.8417 9.58C39.5217 9.18 39.1617 8.92 38.7417 8.76C38.3017 8.6 37.8817 8.48 37.4417 8.36C37.0017 8.26 36.6417 8.1 36.3417 7.9C36.0217 7.7 35.8817 7.42 35.8817 7.06C35.8817 6.8 35.9817 6.58 36.2017 6.38C36.4017 6.18 36.7017 6.08 37.0817 6.08C37.9217 6.08 38.3417 6.48 38.3417 7.28V7.62H39.1217C40.1217 7.62 40.6217 7.22 40.6217 6.4C40.6217 5.72 40.2817 5.16 39.6417 4.72C39.0017 4.28 38.1417 4.06 37.0617 4.06C35.8617 4.06 34.8617 4.38 34.0617 4.98C33.2617 5.6 32.8617 6.42 32.8617 7.44C32.8617 8.02 32.9617 8.52 33.1817 8.92C33.4017 9.32 33.6817 9.62 34.0017 9.8C34.3217 10 34.6817 10.16 35.0617 10.3C35.4417 10.44 35.8017 10.54 36.1217 10.6C36.4417 10.68 36.7217 10.78 36.9417 10.9C37.1617 11.02 37.2817 11.18 37.2817 11.38C37.2817 11.9 36.7617 12.16 35.7217 12.16C34.9617 12.16 34.2217 12 33.5017 11.66V12.34C33.5017 13.04 33.7817 13.52 34.3817 13.8C34.9617 14.08 35.6417 14.2 36.4217 14.2C37.5017 14.2 38.4017 13.94 39.1617 13.42C39.9217 12.9 40.3017 12.12 40.3017 11.12ZM50.4913 11.56C49.6313 11.88 48.7713 12.02 47.9113 12.02C46.1913 12.02 45.1513 11.36 44.7913 10.04H49.5513C50.6113 10.04 51.1513 9.62 51.1513 8.76C51.1513 7.32 50.7513 6.18 49.9513 5.34C49.1513 4.5 48.0313 4.06 46.5913 4.06C45.1113 4.06 43.9313 4.52 43.0313 5.4C42.1313 6.3 41.6912 7.44 41.6912 8.82C41.6912 10.56 42.1313 11.9 43.0513 12.82C43.9712 13.74 45.1913 14.2 46.7113 14.2C47.3313 14.2 47.9113 14.16 48.4513 14.04C48.9913 13.92 49.4713 13.72 49.8713 13.4C50.2713 13.1 50.4913 12.72 50.4913 12.28V11.56ZM46.5513 6.02C47.0513 6.02 47.4513 6.2 47.7513 6.52C48.0313 6.84 48.1913 7.28 48.1913 7.82C48.1913 8.14 48.0313 8.3 47.7313 8.3H44.6313C44.7113 6.78 45.3513 6.02 46.5513 6.02ZM63.4563 10.9C62.2763 11.38 61.1363 11.62 60.0163 11.62C58.5763 11.62 57.4763 11.24 56.7163 10.44C55.9363 9.64 55.5563 8.56 55.5563 7.18C55.5563 6.06 55.8563 5.16 56.4963 4.44C57.1363 3.74 57.9563 3.38 58.9563 3.38C59.6963 3.38 60.2563 3.58 60.6563 3.98C61.0363 4.38 61.2363 4.94 61.2363 5.62V6.06H61.8763C62.4763 6.06 62.9763 5.9 63.3363 5.58C63.6963 5.26 63.8763 4.82 63.8763 4.26C63.8763 3.26 63.4162 2.46 62.4963 1.84C61.5763 1.24 60.4163 0.919999 59.0163 0.919999C57.0163 0.919999 55.4163 1.5 54.2363 2.64C53.0363 3.78 52.4563 5.3 52.4563 7.18C52.4563 9.36 53.0163 11.08 54.1763 12.32C55.3363 13.58 56.9563 14.2 59.0363 14.2C60.2763 14.2 61.3363 14 62.1763 13.56C63.0163 13.14 63.4563 12.54 63.4563 11.74V10.9ZM74.6195 8.94C74.6195 7.42 74.1795 6.22 73.2995 5.36C72.4195 4.5 71.2195 4.06 69.6595 4.06C68.0795 4.06 66.8595 4.5 65.9795 5.36C65.0995 6.22 64.6795 7.42 64.6795 8.94C64.6795 10.52 65.1195 11.8 66.0395 12.76C66.9595 13.72 68.1595 14.2 69.6595 14.2C71.1395 14.2 72.3195 13.72 73.2395 12.76C74.1595 11.8 74.6195 10.52 74.6195 8.94ZM71.6795 8.94C71.6795 9.76 71.4995 10.44 71.1395 11C70.7795 11.56 70.2995 11.84 69.6595 11.84C68.9995 11.84 68.4995 11.56 68.1395 11C67.7795 10.44 67.6195 9.76 67.6195 8.94C67.6195 7.22 68.2995 6.36 69.6595 6.36C70.9995 6.36 71.6795 7.22 71.6795 8.94ZM91.1491 12.58V7.24C91.1491 6.24 90.9091 5.46 90.4491 4.9C89.9891 4.34 89.3091 4.06 88.3891 4.06C86.9891 4.06 85.8491 4.7 84.9891 5.94C84.5691 4.7 83.6891 4.06 82.3691 4.06C81.0491 4.06 79.9891 4.68 79.1891 5.88V4.18C77.8891 4.18 77.0891 4.26 76.8091 4.4C76.5091 4.54 76.3691 4.98 76.3691 5.7V14H79.1891V8.92C79.1891 8.2 79.3491 7.62 79.7091 7.2C80.0691 6.8 80.4891 6.58 81.0091 6.58C81.8891 6.58 82.3491 7.2 82.3491 8.4V14H85.1691V8.86C85.1691 8.16 85.3691 7.6 85.7291 7.2C86.0891 6.8 86.5091 6.58 86.9891 6.58C87.8691 6.58 88.3291 7.2 88.3291 8.4V14.08C89.6091 14.08 90.4091 14.02 90.7091 13.88C90.9891 13.74 91.1491 13.3 91.1491 12.58ZM101.565 11.56C100.705 11.88 99.8455 12.02 98.9855 12.02C97.2655 12.02 96.2255 11.36 95.8655 10.04H100.625C101.685 10.04 102.225 9.62 102.225 8.76C102.225 7.32 101.825 6.18 101.025 5.34C100.225 4.5 99.1055 4.06 97.6655 4.06C96.1855 4.06 95.0055 4.52 94.1055 5.4C93.2055 6.3 92.7655 7.44 92.7655 8.82C92.7655 10.56 93.2055 11.9 94.1255 12.82C95.0455 13.74 96.2655 14.2 97.7855 14.2C98.4055 14.2 98.9855 14.16 99.5255 14.04C100.065 13.92 100.545 13.72 100.945 13.4C101.345 13.1 101.565 12.72 101.565 12.28V11.56ZM97.6255 6.02C98.1255 6.02 98.5255 6.2 98.8255 6.52C99.1055 6.84 99.2655 7.28 99.2655 7.82C99.2655 8.14 99.1055 8.3 98.8055 8.3H95.7055C95.7855 6.78 96.4255 6.02 97.6255 6.02Z" fill="white"/>
</svg>
